/* XPM */
static char *_522592998964[] = {
/* columns rows colors chars-per-pixel */
"70 70 136 2 ",
"   c #0F1701",
".  c #131D01",
"X  c #2A0C04",
"o  c #3E1402",
"O  c #3C200C",
"+  c #2D360E",
"@  c #223811",
"#  c #30371E",
"$  c #2D3F21",
"%  c #393E24",
"&  c #353F2B",
"*  c #441503",
"=  c #4B1703",
"-  c #431A06",
";  c #4D1904",
":  c #461C0B",
">  c #4C1E08",
",  c #541603",
"<  c #5B1704",
"1  c #551A04",
"2  c #5C1D05",
"3  c #631E04",
"4  c #6B1F05",
"5  c #4D220A",
"6  c #462808",
"7  c #4A2B0F",
"8  c #522007",
"9  c #5F2005",
"0  c #522309",
"q  c #5D2209",
"w  c #50290E",
"e  c #5E2A0E",
"r  c #4A2316",
"t  c #4F2D12",
"y  c #562412",
"u  c #5E2110",
"i  c #552D13",
"p  c #552C1B",
"a  c #59281A",
"s  c #45331A",
"d  c #4B331A",
"f  c #573312",
"g  c #52361A",
"h  c #5A3519",
"j  c #543C1E",
"k  c #5B3B1D",
"l  c #652006",
"z  c #6C2206",
"x  c #652309",
"c  c #6C2408",
"v  c #62280F",
"b  c #742406",
"n  c #7B2607",
"m  c #7F2807",
"M  c #732508",
"N  c #7B2608",
"B  c #74290A",
"V  c #7C2809",
"C  c #632D11",
"Z  c #6A2D1B",
"A  c #613915",
"S  c #472D22",
"D  c #502D25",
"F  c #5A2D25",
"G  c #503735",
"H  c #583531",
"J  c #563A35",
"K  c #673326",
"L  c #6C332B",
"P  c #693C33",
"I  c #763C33",
"U  c #35422A",
"Y  c #3A4532",
"T  c #65401C",
"R  c #6C491E",
"E  c #574324",
"W  c #5C4525",
"Q  c #5D442F",
"!  c #5E4828",
"~  c #414D3C",
"^  c #545735",
"/  c #624927",
"(  c #6A4925",
")  c #644C2A",
"_  c #724C24",
"`  c #7C4923",
"'  c #6C522D",
"]  c #7A5325",
"[  c #72542C",
"{  c #77582F",
"}  c #7B5B2C",
"|  c #725630",
" . c #765A32",
".. c #7B5D32",
"X. c #7E6035",
"o. c #4F3E40",
"O. c #56564D",
"+. c #5A524B",
"@. c #4D4A52",
"#. c #69595D",
"$. c #635B66",
"%. c #6E6E6D",
"&. c #736670",
"*. c #716E76",
"=. c #812707",
"-. c #832907",
";. c #812708",
":. c #832A08",
">. c #8B2C09",
",. c #932E09",
"<. c #992E09",
"1. c #97300A",
"2. c #99300A",
"3. c #825524",
"4. c #8B5A25",
"5. c #84562B",
"6. c #845B2C",
"7. c #8C5E2A",
"8. c #915E29",
"9. c #8D602D",
"0. c #93642E",
"q. c #836337",
"w. c #8A6534",
"e. c #846539",
"r. c #8A6738",
"t. c #8C6B3B",
"y. c #936632",
"u. c #936936",
"i. c #9C6C33",
"p. c #946C3A",
"a. c #996F39",
"s. c #937240",
"d. c #7E7786",
"f. c #848189",
"g. c #8C8391",
"h. c None",
/* pixels */
"h.h.h.h.h.h.h.h.h.h.h.h.h.h.h.h.h.h.h.h.h.h.h.h.h.h.h.h.h.h.h.h.h.h.h.h.h.h.h.:.:.:.h.h.h.h.h.h.h.h.h.h.h.h.h.h.h.h.h.h.h.h.h.h.h.h.h.h.h.h.",
"h.h.h.h.h.h.h.h.:.:.:.:.:.:.h.h.h.h.h.h.h.h.h.h.h.h.h.h.h.h.h.h.h.h.h.h.h.h.:.:.:.:.h.h.h.h.h.h.h.h.h.h.h.h.h.h.h.h.h.h.h.h.h.h.h.h.h.h.h.h.",
"h.h.h.h.h.h.h.h.:.:.:.:.:.:.:.:.h.h.h.h.h.h.h.h.h.h.h.h.h.h.h.h.h.h.h.h.h.V :.:.:.h.h.h.h.h.h.h.h.h.h.h.h.h.h.h.h.h.h.h.h.h.h.h.h.h.h.h.h.h.",
"h.h.h.h.h.h.h.h.h.h.:.:.:.:.:.:.:.:.h.h.h.h.h.h.h.h.h.h.h.h.h.h.h.h.h.h.h.:.:.:.h.h.h.h.h.h.h.h.h.h.h.h.h.h.h.h.h.h.h.h.h.h.h.h.h.h.h.h.h.h.",
"h.h.h.h.h.h.h.h.h.h.h.h.h.h.h.:.:.:.:.:.h.h.h.h.h.h.h.h.h.h.h.h.h.h.h.h.m :.:.:.h.h.h.h.h.h.h.h.h.h.h.h.h.h.h.h.h.h.h.h.h.h.h.h.h.h.h.h.h.h.",
"h.h.h.h.h.h.h.h.h.h.h.h.h.h.h.h.:.:.:.:.:.h.h.h.h.h.h.h.h.h.h.h.h.h.h.h.:.:.:.h.h.h.h.h.h.h.h.h.h.h.h.h.h.h.h.h.h.h.h.h.h.h.h.h.h.h.h.h.h.h.",
"h.h.h.h.h.h.h.h.h.h.h.h.h.h.h.h.h.h.:.:.:.:.h.h.h.h.h.h.h.h.h.h.h.h.h.:.:.:.h.h.h.h.h.h.h.h.h.h.h.h.h.h.h.h.h.h.h.h.h.h.h.h.h.h.h.h.h.h.h.h.",
"h.h.h.h.h.h.h.h.h.h.h.h.h.h.h.h.h.h.h.h.:.:.:.h.h.h.h.h.h.h.h.h.h.h.h.:.:.:.h.h.h.h.h.h.h.h.h.h.h.h.h.h.h.h.h.h.h.h.h.h.h.h.h.h.h.h.h.h.h.h.",
"h.h.h.h.h.h.h.h.h.h.h.h.h.h.h.h.h.h.h.h.:.:.:.:.h.h.h.h.h.h.h.h.h.h.:.:.:.h.h.h.h.h.h.h.h.h.h.h.h.h.h.h.h.h.h.h.h.h.h.h.h.h.h.h.h.h.h.h.h.h.",
"h.h.h.h.h.h.h.h.h.h.h.h.h.h.h.h.h.h.h.h.h.:.:.:.h.h.h.h.h.h.h.h.h.h.:.:.:.h.h.h.h.h.h.h.h.h.h.h.h.h.h.h.h.h.h.h.h.h.h.h.h.h.h.h.h.h.h.h.h.h.",
"h.h.h.h.h.h.h.h.h.h.h.h.h.h.h.h.h.h.h.h.h.h.:.:.h.h.h.h.h.h.h.h.h.h.:.:.h.h.h.h.h.h.h.h.h.h.h.h.h.h.h.h.h.h.h.h.h.h.h.h.h.h.h.h.h.h.h.h.h.h.",
"h.h.h.h.h.h.h.h.h.h.h.h.h.h.h.h.h.h.h.h.h.h.:.h.h.h.h.h.h.h.h.h.h.:.:.:.h.h.h.h.h.h.h.h.h.h.h.h.h.h.h.h.h.h.h.h.h.h.h.h.h.h.h.h.h.h.h.h.h.h.",
"h.h.h.h.h.h.h.h.h.h.h.h.h.h.h.h.h.h.h.h.h.h.h.h.h.h.h.<.2.2.2.1.1.:.:.:.h.h.h.h.h.h.h.h.h.h.h.h.h.h.h.h.h.h.h.h.h.h.h.h.h.h.h.h.h.h.h.h.h.h.",
"h.h.h.h.h.h.h.h.h.h.h.h.h.h.h.h.h.h.h.h.h.h.h.h.h.>.1.,.2.2.2.2.2.,.:.>.>.>.h.h.h.h.h.h.h.h.h.h.h.h.h.h.h.h.h.h.h.h.h.h.h.h.h.h.h.h.h.h.h.h.",
"h.h.h.h.h.h.h.h.h.h.h.h.h.h.h.h.h.h.h.h.h.h.h.>.,.<.<.2.1.1.2.2.2.1.>.,.>.:.n h.h.h.h.h.h.h.h.h.h.h.h.h.h.h.h.h.h.h.h.h.h.h.h.h.h.h.h.h.h.h.",
"h.h.h.h.h.h.h.h.h.h.h.h.h.h.h.h.h.h.h.h.h.h.2 l n >.1.1.,.>.,.>.:.c l l x c c z h.h.h.h.h.h.h.h.h.h.h.h.h.h.h.h.h.h.h.h.h.h.h.h.h.h.h.h.h.h.",
"h.h.h.h.h.h.h.h.h.h.h.h.h.h.h.h.h.h.h.h.h.h.1 l 3 z =.-.:.=.b 3 3 3 3 3 2 1 < 9 h.h.h.h.h.h.h.h.h.h.h.h.h.h.h.h.h.h.h.h.h.h.h.h.h.h.h.h.h.h.",
"h.h.h.h.h.h.h.h.h.h.h.h.h.h.h.h.h.h.h.h.h.h.X F P Z 4 n m b 3 3 Z I L y 1 1 2 2 h.h.h.h.h.h.h.h.h.h.h.h.h.h.h.h.h.h.h.h.h.h.h.h.h.h.h.h.h.h.",
"h.h.h.h.h.h.h.h.h.h.h.h.h.h.h.h.h.h.h.h.0._ d O.U +.K 4 b 4 1 6 % %.g.&.G o 1 1 h.h.h.h.h.h.h.h.h.h.h.h.h.h.h.h.h.h.h.h.h.h.h.h.h.h.h.h.h.h.",
"h.h.h.h.h.h.h.h.h.h.h.h.h.h.h.h.h.h.h.} w.y.u.^ . Y #.u b 3 > +   & f.d.$.r < 2 h.h.h.h.h.h.h.h.h.h.h.h.h.h.h.h.h.h.h.h.h.h.h.h.h.h.h.h.h.h.",
"h.h.h.h.h.h.h.h.h.h.h.h.h.h.h.h.h.h.h.{ t.s.a.Q $ ~ @.r b 3 : # @ ~ *.$.o.u z 2 h.h.h.h.h.h.h.h.h.h.h.h.h.h.h.h.h.h.h.h.h.h.h.h.h.h.h.h.h.h.",
"h.h.h.h.h.h.h.h.h.h.h.h.h.h.h.h.h.h.h.[ e.t.5.x p D r 2 n b ; : S J H a x b b 2 h.h.h.h.h.h.h.h.h.h.h.h.h.h.h.h.h.h.h.h.h.h.h.h.h.h.h.h.h.h.",
"h.h.h.h.h.h.h.h.h.h.h.h.h.h.h.h.h.h.h.h. .e.` z 4 4 4 m =.b z 4 4 4 4 b b b 3 2 h.h.h.h.h.h.h.h.h.h.h.h.h.h.h.h.h.h.h.h.h.h.h.h.h.h.h.h.h.h.",
"h.h.h.h.h.h.h.h.h.h.h.h.h.h.h.h.h.h.h.h.( [ ` c b b b =.-.m n b b n n b 4 3 1 h.h.h.h.h.h.h.h.h.h.h.h.h.h.h.h.h.h.h.h.h.h.h.h.h.h.h.h.h.h.h.",
"h.h.h.h.h.h.h.h.h.h.h.h.h.h.h.h.h.h.h.h.h.f t 8 l z b b n b b z z 4 l 3 2 2 ; h.h.h.h.h.h.h.h.h.h.h.h.h.h.h.h.h.h.h.h.h.h.h.h.h.h.h.h.h.h.h.",
"h.h.h.h.h.h.h.h.h.h.h.h.h.h.h.h.h.h.h.h.h.h.- o * 2 2 2 2 1 l l 3 3 < 1 , 8 _ [ h.h.h.h.h.h.h.h.h.h.h.h.h.h.h.h.h.h.h.h.h.h.h.h.h.h.h.h.h.h.",
"h.h.h.h.h.h.h.h.h.h.h.h.h.h.h.h.h.h.h.h.h.h.h.c l * ; > ; ; 1 2 1 ; 8 i k T ] 9.w.h.h.h.h.h.h.h.h.h.h.h.h.h.h.h.h.h.h.h.h.h.h.h.h.h.h.h.h.h.",
"h.h.h.h.h.h.h.h.h.h.h.h.h.h.h.h.h.h.h.h.h.h.h.h.:.1 h.h.5 0 ; * - k W ) ) ) ( _ 3.3.3.9.a.h.h.h.h.h.h.h.h.h.h.h.h.h.h.h.h.h.h.h.h.h.h.h.h.h.",
"h.h.h.h.h.h.h.h.h.h.h.h.h.h.h.h.h.h.h.h.h.h.h.h.>.b h.h.h.h.- = O g W ! ) ) ) | | { { 6.4.u.X.h.h.h.h.h.h.h.h.h.h.h.h.h.h.h.h.h.h.h.h.h.h.h.",
"h.h.h.h.h.h.h.h.h.h.h.h.h.h.h.h.h.h.h.h.h.h.h.h.V n h.h.h.3 ; ; * - 5 k W ! ! ) ' |  .X.6.4.u.{ h.h.h.h.h.h.h.h.h.h.h.h.h.h.h.h.h.h.h.h.h.h.",
"h.h.h.h.h.h.h.h.h.h.h.h.h.h.h.h.h.h.h.h.h.h.h.h.h.z c c x x 3 2 < 2 l l i E E W / ) ' | ..6.4.9.9.h.h.h.h.h.h.h.h.h.h.h.h.h.h.h.h.h.h.h.h.h.",
"h.h.h.h.h.h.h.h.h.h.h.h.h.h.h.h.h.h.h.h.h.h.h.h.h.h.h.h.h.h.c x z z 2 2 2 e t s s E ! '  .q.w.9.7.8.9.y.i.h.h.h.h.h.h.h.h.h.h.h.h.h.h.h.h.h.",
"h.h.h.h.h.h.h.h.h.h.h.h.h.h.h.h.h.h.h.h.h.h.h.h.h.h.h.h.h.h.l z z z 2 * ; c b c h.O s ! | ..q.q.q.r.r.w.7.y.t.h.h.h.h.h.h.h.h.h.h.h.h.h.h.h.",
"h.h.h.h.h.h.h.h.h.h.h.h.h.h.h.h.h.h.h.h.h.h.h.h.h.h.h.h.h.h.4 l z z 1 ; ; h.h.B :.>.v g W '  ... ...X.w.r.7.0.r.h.h.h.h.h.h.h.h.h.h.h.h.h.h.",
"h.h.h.h.h.h.h.h.h.h.h.h.h.h.h.h.h.h.h.h.h.h.h.h.h.h.h.h.h.h.h.l 2 3 1 1 1 h.h.h.h.N n u t E / ) ) ' '  .X.r.u.y.y.0.h.h.h.h.h.h.h.h.h.h.h.h.",
"h.h.h.h.h.h.h.h.h.h.h.h.h.h.h.h.h.h.h.h.h.h.h.h.h.h.h.h.h.h.h.h.< 2 l 2 1 9 h.h.h.h.3 3 c c v f g j E / ' ..t.p.u.0.8.7.h.h.h.h.h.h.h.h.h.h.",
"h.h.h.h.h.h.h.h.h.h.h.h.h.h.h.h.h.h.h.h.h.h.h.h.h.h.h.h.h.h.h.h.h.h.3 2 9 2 c V ;.m c 2 * h.h.b V B C g E ) X.t.t.t.6.` ] R h.h.h.h.h.h.h.h.",
"h.h.h.h.h.h.h.h.h.h.h.h.h.h.h.h.h.h.h.h.h.h.h.h.h.h.h.h.h.h.h.h.h.h.h.x 9 x n :.>.-.m b 1 o h.h.b B M x i p k '  .X._ A f 7 h.h.h.h.h.h.h.h.",
"h.h.h.h.h.h.h.h.h.h.h.h.h.h.h.h.h.h.h.h.h.h.h.h.h.h.h.h.h.h.h.h.h.h.h.h.l b n m -.-.m n z 1 * o h.h.3 2 3 z c C h g w q 5 h.h.h.h.h.h.h.h.h.",
"h.h.h.h.h.h.h.h.h.h.h.h.h.h.h.h.h.h.h.h.h.h.h.h.h.h.h.h.h.h.h.h.h.h.h.h.z c n n m =.n m b z 1 * * h.h.h.1 2 l x l 9 1 1 h.h.h.h.h.h.h.h.h.h.",
"h.h.h.h.h.h.h.h.h.h.h.h.h.h.h.h.h.h.h.h.h.h.h.h.h.h.h.h.h.h.h.h.h.h.h.h.z z M M n m n b b z l ; * h.h.h.h.h.1 2 1 1 1 h.h.h.h.h.h.h.h.h.h.h.",
"h.h.h.h.h.h.h.h.h.h.h.h.h.h.h.h.h.h.h.h.h.h.h.h.h.h.h.h.h.h.h.h.h.h.h.h.x c z M b M b z z z 3 < ; ; h.h.h.h.h.h.h.h.h.h.h.h.h.h.h.h.h.h.h.h.",
"h.h.h.h.h.h.h.h.h.h.h.h.h.h.h.h.h.h.h.h.h.h.h.h.h.h.h.h.h.h.h.h.h.h.h.h.h.3 l M M c z c l l l 2 ; ; h.h.h.h.h.h.h.h.h.h.h.h.h.h.h.h.h.h.h.h.",
"h.h.h.h.h.h.h.h.h.h.h.h.h.h.h.h.h.h.h.h.h.h.h.h.h.h.h.h.h.h.h.h.h.h.h.h.h.h.2 l z l 3 2 2 2 1 1 ; = h.h.h.h.h.h.h.h.h.h.h.h.h.h.h.h.h.h.h.h.",
"h.h.h.h.h.h.h.h.h.h.h.h.h.h.h.h.h.h.h.h.h.h.h.h.h.h.h.h.h.h.h.h.h.h.h.h.h.h.2 2 < 1 9 ; 1 1 < 1 ; = = h.h.h.h.h.h.h.h.h.h.h.h.h.h.h.h.h.h.h.",
"h.h.h.h.h.h.h.h.h.h.h.h.h.h.h.h.h.h.h.h.h.h.h.h.h.h.h.h.h.h.h.h.h.h.h.h.h.c 2 ; ; 2 n 2 ; ; 1 ; = = h.h.h.h.h.h.h.h.h.h.h.h.h.h.h.h.h.h.h.h.",
"h.h.h.h.h.h.h.h.h.h.h.h.h.h.h.h.h.h.h.h.h.h.h.h.h.h.h.h.h.h.h.h.h.h.h.h.B c l h.h.h.V l h.h.h.h.h.h.h.h.h.h.h.h.h.h.h.h.h.h.h.h.h.h.h.h.h.h.",
"h.h.h.h.h.h.h.h.h.h.h.h.h.h.h.h.h.h.h.h.h.h.h.h.h.h.h.h.h.h.h.h.h.h.h.N c 2 h.h.h.h.:.V h.h.h.h.h.h.h.h.h.h.h.h.h.h.h.h.h.h.h.h.h.h.h.h.h.h.",
"h.h.h.h.h.h.h.h.h.h.h.h.h.h.h.h.h.h.h.h.h.h.h.h.h.h.h.h.h.h.h.h.h.h.:.z 2 h.h.h.h.h.;.N h.h.h.h.h.h.h.h.h.h.h.h.h.h.h.h.h.h.h.h.h.h.h.h.h.h.",
"h.h.h.h.h.h.h.h.h.h.h.h.h.h.h.h.h.h.h.h.h.h.h.h.h.h.h.h.h.h.h.h.h.m c < h.h.h.h.h.h.h.c h.h.h.h.h.h.h.h.h.h.h.h.h.h.h.h.h.h.h.h.h.h.h.h.h.h.",
"h.h.h.h.h.h.h.h.h.h.h.h.h.h.h.h.h.h.h.h.h.h.h.h.h.h.h.h.h.h.h.h.V M 2 h.h.h.h.h.h.h.h.B h.h.h.h.h.h.h.h.h.h.h.h.h.h.h.h.h.h.h.h.h.h.h.h.h.h.",
"h.h.h.h.h.h.h.h.h.h.h.h.h.h.h.h.h.h.h.h.h.h.h.h.h.h.h.h.h.h.h.:.n x h.h.h.h.h.h.h.h.h.;.c h.h.h.h.h.h.h.h.h.h.h.h.h.h.h.h.h.h.h.h.h.h.h.h.h.",
"h.h.h.h.h.h.h.h.h.h.h.h.h.h.h.h.h.h.h.h.h.h.h.h.h.h.h.h.h.h.h.M z h.h.h.h.h.h.h.h.h.h.:.:.h.h.h.h.h.h.h.h.h.h.h.h.h.h.h.h.h.h.h.h.h.h.h.h.h.",
"h.h.h.h.h.h.h.h.h.h.h.h.h.h.h.h.h.h.h.h.h.h.h.h.h.h.h.h.h.h.h.c h.h.h.h.h.h.h.h.h.h.h.:.:.h.h.h.h.h.h.h.h.h.h.h.h.h.h.h.h.h.h.h.h.h.h.h.h.h.",
"h.h.h.h.h.h.h.h.h.h.h.h.h.h.h.h.h.h.h.h.h.h.h.h.h.h.h.h.h.h.h.B x h.h.h.h.h.h.h.h.h.h.B m z h.h.h.h.h.h.h.h.h.h.h.h.h.h.h.h.h.h.h.h.h.h.h.h.",
"h.h.h.h.h.h.h.h.h.h.h.h.h.h.h.h.h.h.h.h.h.h.h.h.h.h.h.h.h.h.h.M z h.h.h.h.h.h.h.h.h.h.h.l z h.h.h.h.h.h.h.h.h.h.h.h.h.h.h.h.h.h.h.h.h.h.h.h.",
"h.h.h.h.h.h.h.h.h.h.h.h.h.h.h.h.h.h.h.h.h.h.h.h.h.h.h.h.h.h.h.h.M h.h.h.h.h.h.h.h.h.h.h.h.z M h.h.h.h.h.h.h.h.h.h.h.h.h.h.h.h.h.h.h.h.h.h.h.",
"h.h.h.h.h.h.h.h.h.h.h.h.h.h.h.h.h.h.h.h.h.h.h.h.h.h.h.h.h.h.h.h.M < h.h.h.h.h.h.h.h.h.h.h.h.M M h.h.h.h.h.h.h.h.h.h.h.h.h.h.h.h.h.h.h.h.h.h.",
"h.h.h.h.h.h.h.h.h.h.h.h.h.h.h.h.h.h.h.h.h.h.h.h.h.h.h.h.h.h.h.h.M 1 h.h.h.h.h.h.h.h.h.h.h.h.h.M h.h.h.h.h.h.h.h.h.h.h.h.h.h.h.h.h.h.h.h.h.h.",
"h.h.h.h.h.h.h.h.h.h.h.h.h.h.h.h.h.h.h.h.h.h.h.h.h.h.h.h.h.h.h.h.c 8 h.h.h.h.h.h.h.h.h.h.h.h.h.c z h.h.h.h.h.h.h.h.h.h.h.h.h.h.h.h.h.h.h.h.h.",
"h.h.h.h.h.h.h.h.h.h.h.h.h.h.h.h.h.h.h.h.h.h.h.h.h.h.h.h.h.h.h.h.c l h.h.h.h.h.h.h.h.h.h.h.h.h.h.c 3 h.h.h.h.h.h.h.h.h.h.h.h.h.h.h.h.h.h.h.h.",
"h.h.h.h.h.h.h.h.h.h.h.h.h.h.h.h.h.h.h.h.h.h.h.h.h.h.h.h.h.h.h.h.B x h.h.h.h.h.h.h.h.h.h.h.h.h.h.h.x h.h.h.h.h.h.h.h.h.h.h.h.h.h.h.h.h.h.h.h.",
"h.h.h.h.h.h.h.h.h.h.h.h.h.h.h.h.h.h.h.h.h.h.h.h.h.h.h.h.h.h.h.h.M c h.h.h.h.h.h.h.h.h.h.h.h.h.h.h.3 h.h.h.h.h.h.h.h.h.h.h.h.h.h.h.h.h.h.h.h.",
"h.h.h.h.h.h.h.h.h.h.h.h.h.h.h.h.h.h.h.h.h.h.h.h.h.h.h.h.h.h.h.h.c x h.h.h.h.h.h.h.h.h.h.h.h.h.h.h.3 c h.h.h.h.h.h.h.h.h.h.h.h.h.h.h.h.h.h.h.",
"h.h.h.h.h.h.h.h.h.h.h.h.h.h.h.h.h.h.h.h.h.h.h.h.h.h.h.h.h.h.B v l 2 h.h.h.h.h.h.h.h.h.h.h.h.h.h.h.h.3 3 h.h.h.h.h.h.h.h.h.h.h.h.h.h.h.h.h.h.",
"h.h.h.h.h.h.h.h.h.h.h.h.h.h.h.h.h.h.h.h.h.h.h.h.h.c x M M c N :.M q h.h.h.h.h.h.h.h.h.h.h.h.h.h.:.;.M 4 h.h.h.h.h.h.h.h.h.h.h.h.h.h.h.h.h.h.",
"h.h.h.h.h.h.h.h.h.h.h.h.h.h.h.h.h.h.h.h.h.h.h.n V V M c M M N :.V x h.h.h.h.h.h.h.h.h.h.:.:.:.n M m c 4 h.h.h.h.h.h.h.h.h.h.h.h.h.h.h.h.h.h.",
"h.h.h.h.h.h.h.h.h.h.h.h.h.h.h.h.h.h.h.h.h.h.h.z M c c c z c c M c 2 h.h.h.h.h.h.h.h.h.h.n m V b c 3 3 2 2 h.h.h.h.h.h.h.h.h.h.h.h.h.h.h.h.h.",
"h.h.h.h.h.h.h.h.h.h.h.h.h.h.h.h.h.h.h.h.h.h.h.h.3 ; * , h.h.h.h.h.h.h.h.h.h.h.h.h.h.h.h.h.z z 3 2 < 1 , h.h.h.h.h.h.h.h.h.h.h.h.h.h.h.h.h.h.",
"h.h.h.h.h.h.h.h.h.h.h.h.h.h.h.h.h.h.h.h.h.h.h.h.h.h.h.h.h.h.h.h.h.h.h.h.h.h.h.h.h.h.h.h.h.h.h.h.h.h.h.h.h.h.h.h.h.h.h.h.h.h.h.h.h.h.h.h.h.h."
};
